<?xml version="1.0" standalone="no"?>
<!DOCTYPE svg PUBLIC "-//W3C//DTD SVG 20010904//EN"
 "http://www.w3.org/TR/2001/REC-SVG-20010904/DTD/svg10.dtd">
<svg version="1.0" xmlns="http://www.w3.org/2000/svg"
 width="560.000000pt" height="560.000000pt" viewBox="0 0 560.000000 560.000000"
 preserveAspectRatio="xMidYMid meet">
<metadata>
Created by potrace 1.14, written by Peter Selinger 2001-2017
</metadata>
<g transform="translate(0.000000,560.000000) scale(0.100000,-0.100000)"
fill="#000000" stroke="none">
<path d="M2055 5200 c-2 -3 45 -251 105 -550 60 -300 111 -556 114 -570 2 -14
9 -45 14 -70 6 -25 13 -61 16 -80 3 -19 8 -44 10 -55 3 -11 47 -234 100 -495
52 -261 99 -491 102 -510 9 -42 9 -94 1 -135 -10 -44 -107 -525 -112 -555 -3
-14 -7 -34 -9 -45 -13 -63 -56 -275 -60 -300 -3 -16 -8 -39 -10 -50 -67 -331
-266 -1337 -268 -1355 l-3 -25 231 -1 231 -1 11 56 c6 31 49 247 97 481 47
234 88 441 91 460 3 19 7 37 9 40 2 3 6 23 10 45 3 22 18 99 34 170 28 134 31
136 47 45 3 -14 23 -113 44 -220 21 -108 41 -207 43 -220 3 -14 8 -36 11 -50
3 -14 8 -36 10 -50 3 -14 12 -61 21 -104 8 -44 18 -91 20 -105 3 -14 29 -143
58 -286 l53 -260 232 -1 c164 -1 232 2 232 10 0 6 -25 133 -54 281 -30 149
-57 281 -59 295 -6 31 -65 326 -73 360 -3 14 -7 36 -10 50 -4 22 -14 73 -28
145 -2 11 -13 65 -25 120 -11 55 -22 111 -25 125 -2 14 -36 185 -75 380 -39
195 -74 366 -76 380 -3 14 -15 76 -28 139 -24 112 -24 125 -2 221 6 26 22 107
30 150 3 14 7 36 10 50 3 14 10 48 15 75 11 56 10 51 39 195 12 58 24 116 26
130 2 14 18 90 34 170 17 80 33 160 36 178 3 18 12 64 20 102 8 38 17 84 20
102 3 18 10 49 15 68 5 19 11 51 14 70 3 19 14 79 26 134 11 54 22 110 25 124
2 14 9 48 15 76 11 55 17 87 25 126 3 14 7 36 10 50 9 39 25 122 31 155 3 17
9 46 14 65 5 19 12 55 15 80 4 24 8 47 10 50 5 9 18 84 19 115 l1 29 -223 1
c-143 0 -227 -4 -232 -10 -5 -6 -12 -26 -15 -45 -3 -19 -21 -111 -40 -203 -19
-93 -37 -181 -40 -195 -2 -15 -34 -172 -70 -349 -35 -177 -67 -335 -70 -350
-2 -15 -9 -43 -14 -61 -5 -18 -10 -35 -10 -37 1 -5 -10 -71 -17 -109 -2 -10
-5 -20 -7 -22 -2 -3 -38 168 -62 296 -3 14 -7 36 -10 50 -3 14 -7 34 -9 45
-17 82 -69 343 -71 355 -2 8 -31 152 -65 320 -33 167 -63 306 -66 309 -7 7
-455 7 -459 1z"/>
<path d="M304 4806 c-2 -6 -2 -913 -1 -2016 l2 -2005 330 -1 c361 -1 433 6
533 54 193 90 339 283 359 476 4 34 7 716 7 1516 0 1592 3 1499 -58 1632 -76
167 -242 300 -421 339 -78 16 -745 21 -751 5z m694 -401 c63 -23 99 -55 124
-112 18 -42 19 -84 19 -1482 -1 -1553 2 -1476 -52 -1556 -41 -61 -88 -76 -244
-79 -86 -1 -139 2 -144 9 -6 8 -8 3212 -2 3235 0 3 57 5 124 4 93 -1 137 -5
175 -19z"/>
<path d="M4580 4812 c-259 -34 -501 -274 -527 -524 -11 -105 -8 -988 3 -996 5
-4 39 -47 74 -97 36 -49 100 -137 142 -195 43 -58 86 -116 96 -129 9 -14 42
-57 72 -97 30 -41 143 -194 250 -340 l195 -267 1 -386 c1 -415 -3 -450 -50
-522 -47 -70 -150 -99 -242 -69 -86 28 -136 80 -150 152 -3 18 -6 240 -6 493
l0 461 -192 0 c-105 0 -193 -3 -196 -7 -3 -4 -5 -225 -4 -491 1 -423 3 -491
18 -548 32 -117 78 -193 176 -289 93 -92 211 -153 320 -169 68 -10 200 -6 250
8 142 38 278 134 363 259 50 72 63 102 86 191 17 69 19 116 19 558 l0 482
-119 163 c-66 89 -175 239 -244 332 -68 94 -204 278 -301 410 l-176 239 0 396
c1 377 2 398 22 450 25 68 46 93 97 120 100 52 254 6 305 -93 22 -41 22 -48
24 -512 1 -258 2 -475 3 -481 1 -7 65 -10 196 -10 l194 0 -3 506 c-2 492 -3
507 -25 573 -12 38 -32 85 -43 105 -93 167 -261 291 -433 318 -47 7 -159 11
-195 6z"/>
</g>
</svg>
